<svg width="31" height="31" viewBox="0 0 31 31" fill="none" xmlns="http://www.w3.org/2000/svg">
  <g clip-path="url(#clip0_1_229)">
    <path d="M18.0417 23.2784C16.3557 23.841 14.4959 23.8409 12.8051 23.2782C12.3313 23.1204 11.8198 23.3767 11.6622 23.8502C11.5046 24.3238 11.7607 24.8355 12.2343 24.9931C13.264 25.3358 14.3449 25.5071 15.4255 25.5071C16.5062 25.5071 17.5865 25.3357 18.6138 24.9929C19.0872 24.8349 19.343 24.3231 19.185 23.8496C19.027 23.3762 18.5152 23.1206 18.0417 23.2784Z" fill="#DC7000" />
    <path d="M25.9514 5.90434C25.5668 3.14554 23.1978 0.96802 20.2638 0.96802H19.2315V0.903734C19.2315 0.404632 18.8268 0 18.3277 0H12.5197C12.0206 0 11.616 0.404632 11.616 0.903734V0.967959H10.5837C7.67427 0.967959 5.30208 3.11511 4.89866 5.90367C3.20458 6.28921 1.93604 7.80658 1.93604 9.61567V17.3597C1.93604 19.8363 3.95335 20.8457 4.86968 21.0635C5.28347 26.6388 9.96499 30.8475 15.4237 30.8475C20.9905 30.8475 25.5671 26.5273 25.9774 21.0637C28.3526 20.4998 28.9114 18.3448 28.9114 17.3598V9.61573C28.9115 7.80754 27.6441 6.29077 25.9514 5.90434ZM19.2315 2.77543H20.2637C22.8208 2.77543 23.8771 4.86613 24.0967 5.808H19.2315V2.77543ZM13.4235 1.80747H17.424V5.808H13.4235V1.80747ZM10.5837 2.77543H11.616V5.808H6.75445C7.34061 3.35249 9.56512 2.77543 10.5837 2.77543ZM15.4237 29.04C10.9632 29.04 7.15034 25.6609 6.69341 21.1674H11.15C12.259 21.1674 13.3441 20.718 14.127 19.9345C14.1317 19.9299 14.1363 19.9252 14.1408 19.9204C14.4808 19.5878 14.9473 19.3975 15.4237 19.3975C15.9003 19.3975 16.3667 19.5879 16.7067 19.9205C16.7112 19.9252 16.7158 19.9299 16.7205 19.9345C17.5034 20.718 18.5885 21.1674 19.6975 21.1674H24.1537C23.6999 25.5837 19.9579 29.04 15.4237 29.04ZM27.104 17.3598C27.104 18.4782 26.1924 19.36 25.1037 19.36H19.6975C19.0714 19.36 18.4589 19.1093 18.0137 18.6714C18.0088 18.6663 18.0039 18.6613 17.9989 18.6562C17.3213 17.9786 16.3828 17.59 15.4238 17.59C14.4649 17.59 13.5263 17.9786 12.8487 18.6562C12.8437 18.6612 12.8387 18.6663 12.8339 18.6714C12.3886 19.1093 11.7761 19.36 11.15 19.36H5.74371C4.6585 19.36 3.74344 18.482 3.74344 17.3598V9.61573C3.74344 8.51281 4.64079 7.61553 5.74371 7.61553H25.1037C26.2067 7.61553 27.1039 8.51287 27.1039 9.61573V17.3598H27.104Z" fill="#DC7000" />
  </g>
  <defs>
    <clipPath id="clip0_1_229">
      <rect width="30.8475" height="30.8475" fill="white" />
    </clipPath>
  </defs>
</svg>