<svg width="31" height="31" viewBox="0 0 31 31" fill="none" xmlns="http://www.w3.org/2000/svg">
  <g clip-path="url(#clip0_1_261)">
    <path d="M30.8268 27.0259L30.1652 24.5568C30.0791 24.2354 29.7486 24.0444 29.4273 24.1308C29.1059 24.2169 28.9151 24.5473 29.0013 24.8687L29.2909 25.9496L25.0631 23.538V13.5148C25.0631 13.2991 24.9478 13.0999 24.7609 12.9924L16.0253 7.97005V3.19735L16.8043 3.97635C17.0396 4.21164 17.4211 4.21164 17.6564 3.97635C17.8917 3.74107 17.8917 3.35955 17.6564 3.12421L15.8489 1.31664C15.6133 1.08015 15.2276 1.08491 14.9967 1.31664L13.1891 3.12421C12.9539 3.35949 12.9539 3.74101 13.1891 3.97635C13.4244 4.21158 13.8059 4.21158 14.0413 3.97635L14.8203 3.19735V7.97114L6.1433 12.9933C5.95718 13.101 5.84259 13.2998 5.84259 13.5148V23.4406L1.55534 25.8768L1.84545 24.7939C1.93155 24.4725 1.74079 24.1421 1.41935 24.056C1.09784 23.9697 0.767538 24.1606 0.681438 24.4821L0.0198684 26.9518C-0.0638823 27.2645 0.123382 27.6125 0.463988 27.6945L2.91511 28.3513C3.23915 28.4381 3.56764 28.244 3.65308 27.9252C3.73924 27.6038 3.54848 27.2735 3.22704 27.1873L2.18148 26.9072L6.43655 24.4892L15.1551 29.6231C15.3417 29.733 15.5734 29.7345 15.7617 29.6259L17.9719 28.3518C18.2602 28.1856 18.3591 27.8171 18.193 27.5289C18.0268 27.2406 17.6584 27.1417 17.37 27.3078L15.464 28.4066L7.64521 23.8025L15.3849 19.4044L23.2736 23.9045L22.0667 24.6003C21.7784 24.7664 21.6795 25.1349 21.8456 25.4231C22.0119 25.7115 22.3804 25.8105 22.6686 25.6442L24.4864 24.5962L28.6669 26.981L27.6199 27.2615C27.2984 27.3476 27.1077 27.678 27.1938 27.9994C27.2795 28.3192 27.6088 28.5121 27.9317 28.4254L30.3465 27.7785C30.6913 27.7176 30.9193 27.371 30.8268 27.0259ZM23.858 22.8505L16.0252 18.3824V9.36007L23.858 13.8634V22.8505ZM7.04763 13.8622L14.8202 9.36357V18.3391L7.04763 22.7558V13.8622Z" fill="#DC7000" />
    <path d="M20.0019 27.0486C20.3347 27.0486 20.6045 26.7789 20.6045 26.4461C20.6045 26.1134 20.3347 25.8436 20.0019 25.8436C19.6692 25.8436 19.3994 26.1134 19.3994 26.4461C19.3994 26.7789 19.6692 27.0486 20.0019 27.0486Z" fill="#DC7000" />
  </g>
  <defs>
    <clipPath id="clip0_1_261">
      <rect width="30.8475" height="30.8475" fill="white" />
    </clipPath>
  </defs>
</svg>