<svg width="30" height="30" viewBox="0 0 30 30" fill="none" xmlns="http://www.w3.org/2000/svg">
  <g clip-path="url(#clip0_1_168)">
    <path d="M21.1169 0H8.62866C7.42495 0 6.44482 0.980123 6.44482 2.18383V27.5614C6.44482 28.7656 7.42495 29.7458 8.62866 29.7458H21.1164C22.3206 29.7458 23.3008 28.7656 23.3008 27.5619V2.18383C23.3008 0.980123 22.3206 0 21.1169 0ZM7.43635 3.9661H22.3092V22.8051H7.43635V3.9661ZM8.62866 0.991525H21.1164C21.7743 0.991525 22.3092 1.52645 22.3092 2.18383V2.97458H7.43635V2.18383C7.43635 1.52645 7.97128 0.991525 8.62866 0.991525ZM21.1169 28.7542H8.62866C7.97128 28.7542 7.43635 28.2193 7.43635 27.5619V23.7966H22.3092V27.5619C22.3092 28.2193 21.7743 28.7542 21.1169 28.7542Z" fill="#DC7000" />
    <path d="M14.8729 24.2924C13.7793 24.2924 12.8899 25.1818 12.8899 26.2754C12.8899 27.3691 13.7793 28.2585 14.8729 28.2585C15.9666 28.2585 16.856 27.3691 16.856 26.2754C16.856 25.1818 15.9666 24.2924 14.8729 24.2924ZM14.8729 27.2669C14.3261 27.2669 13.8814 26.8222 13.8814 26.2754C13.8814 25.7286 14.3261 25.2839 14.8729 25.2839C15.4198 25.2839 15.8645 25.7286 15.8645 26.2754C15.8645 26.8222 15.4198 27.2669 14.8729 27.2669Z" fill="#DC7000" />
    <path d="M12.8898 2.47883H14.8729C15.147 2.47883 15.3686 2.25722 15.3686 1.98307C15.3686 1.70891 15.147 1.4873 14.8729 1.4873H12.8898C12.6156 1.4873 12.394 1.70891 12.394 1.98307C12.394 2.25722 12.6156 2.47883 12.8898 2.47883Z" fill="#DC7000" />
    <path d="M16.3603 2.47883H16.856C17.1302 2.47883 17.3518 2.25722 17.3518 1.98307C17.3518 1.70891 17.1302 1.4873 16.856 1.4873H16.3603C16.0861 1.4873 15.8645 1.70891 15.8645 1.98307C15.8645 2.25722 16.0861 2.47883 16.3603 2.47883Z" fill="#DC7000" />
    <path d="M28.0661 2.26513C27.8723 2.07129 27.559 2.07129 27.3651 2.26513C27.1713 2.45898 27.1713 2.7723 27.3651 2.96614C29.2173 4.81831 29.2173 7.83205 27.3651 9.68472C27.1713 9.87856 27.1713 10.1919 27.3651 10.3857C27.4618 10.4824 27.5887 10.531 27.7156 10.531C27.8425 10.531 27.9694 10.4824 28.0661 10.3857C30.305 8.14736 30.305 4.504 28.0661 2.26513Z" fill="#DC7000" />
    <path d="M25.9785 3.39349C25.7846 3.19965 25.4713 3.19965 25.2775 3.39349C25.0836 3.58733 25.0836 3.90066 25.2775 4.0945C25.8907 4.70776 26.2283 5.52477 26.2283 6.39434C26.2283 7.26391 25.8907 8.08043 25.2775 8.69369C25.0836 8.88753 25.0836 9.20085 25.2775 9.3947C25.3741 9.49137 25.5011 9.53996 25.628 9.53996C25.7549 9.53996 25.8818 9.49137 25.9785 9.3947C26.7791 8.59454 27.2199 7.52865 27.2199 6.39434C27.2199 5.26004 26.7796 4.19365 25.9785 3.39349Z" fill="#DC7000" />
    <path d="M2.38065 2.96614C2.57449 2.7723 2.57449 2.45898 2.38065 2.26513C2.1868 2.07129 1.87348 2.07129 1.67964 2.26513C-0.559228 4.504 -0.559228 8.14686 1.67964 10.3857C1.77631 10.4824 1.90323 10.531 2.03014 10.531C2.15706 10.531 2.28397 10.4824 2.38065 10.3857C2.57449 10.1919 2.57449 9.87856 2.38065 9.68472C0.52798 7.83255 0.52798 4.81881 2.38065 2.96614Z" fill="#DC7000" />
    <path d="M4.46828 3.25665C4.27443 3.06281 3.96111 3.06281 3.76727 3.25665C2.96661 4.05681 2.52588 5.1227 2.52588 6.25701C2.52588 7.39131 2.96661 8.4572 3.76727 9.25786C3.86394 9.35453 3.99086 9.40312 4.11777 9.40312C4.24469 9.40312 4.3716 9.35453 4.46828 9.25786C4.66212 9.06401 4.66212 8.75069 4.46828 8.55685C3.85502 7.94359 3.5174 7.12657 3.5174 6.25701C3.5174 5.38744 3.85452 4.57092 4.46828 3.95766C4.66162 3.76431 4.66162 3.45049 4.46828 3.25665Z" fill="#DC7000" />
  </g>
  <defs>
    <clipPath id="clip0_1_168">
      <rect width="29.7458" height="29.7458" fill="white" />
    </clipPath>
  </defs>
</svg>