<svg width="34" height="34" viewBox="0 0 34 34" fill="none" xmlns="http://www.w3.org/2000/svg">
  <g clip-path="url(#clip0_1_243)">
    <path d="M29.1949 1.6525H3.85593C1.72737 1.65492 0.00242849 3.37986 0 5.50843V27.5423C0.00242849 29.6709 1.72737 31.3958 3.85593 31.3983H29.1949C31.3235 31.3958 33.0484 29.6709 33.0508 27.5423V5.50843C33.0484 3.37986 31.3235 1.65492 29.1949 1.6525ZM31.9492 27.5423C31.9473 29.0627 30.7153 30.2947 29.1949 30.2966H3.85593C2.33556 30.2947 1.10352 29.0627 1.10169 27.5423V5.50843C1.10352 3.98806 2.33556 2.75601 3.85593 2.75419H29.1949C30.7153 2.75601 31.9473 3.98806 31.9492 5.50843V27.5423Z" fill="#DC7000" />
    <path d="M29.1949 6.05927H3.85591C2.94324 6.05927 2.20337 6.79913 2.20337 7.71181V27.5423C2.20337 28.455 2.94324 29.1949 3.85591 29.1949H29.1949C30.1076 29.1949 30.8474 28.455 30.8474 27.5423V7.71181C30.8474 6.79913 30.1076 6.05927 29.1949 6.05927ZM16.5254 17.0013L10.5261 13.7711L16.5254 10.541L22.5247 13.7711L16.5254 17.0013ZM23.1356 14.6932V21.1525L17.0763 24.4168V17.9576L23.1356 14.6932ZM15.9746 17.9576V24.4168L9.91523 21.1525V14.6932L15.9746 17.9576ZM3.30506 7.71181C3.30506 7.40758 3.55169 7.16096 3.85591 7.16096H15.9746V9.58469L9.10328 13.2864C9.09612 13.2902 9.08786 13.2919 9.0807 13.2963C8.91413 13.3964 8.81261 13.5768 8.81354 13.7711V18.3883L3.30506 21.1426V7.71181ZM29.7457 27.5423C29.7457 27.8465 29.4991 28.0932 29.1949 28.0932H3.85591C3.55169 28.0932 3.30506 27.8465 3.30506 27.5423V22.3743L8.81354 19.62V21.483C8.81364 21.6856 8.92492 21.8717 9.10328 21.9677L16.2643 25.8237C16.4273 25.9114 16.6235 25.9114 16.7865 25.8237L23.9475 21.9677C24.1259 21.8717 24.2372 21.6856 24.2373 21.483V19.62L29.7457 22.3743V27.5423ZM29.7457 21.1426L24.2373 18.3883V13.7711C24.2372 13.5774 24.1353 13.3979 23.969 13.2985C23.9618 13.2941 23.9536 13.2924 23.9464 13.2886L17.0763 9.58469V7.16096H29.1949C29.4991 7.16096 29.7457 7.40758 29.7457 7.71181V21.1426Z" fill="#DC7000" />
    <path d="M3.305 4.95762C3.60922 4.95762 3.85585 4.711 3.85585 4.40677C3.85585 4.10255 3.60922 3.85593 3.305 3.85593C3.00077 3.85593 2.75415 4.10255 2.75415 4.40677C2.75415 4.711 3.00077 4.95762 3.305 4.95762Z" fill="#DC7000" />
    <path d="M5.50837 4.95762C5.81259 4.95762 6.05921 4.711 6.05921 4.40677C6.05921 4.10255 5.81259 3.85593 5.50837 3.85593C5.20414 3.85593 4.95752 4.10255 4.95752 4.40677C4.95752 4.711 5.20414 4.95762 5.50837 4.95762Z" fill="#DC7000" />
    <path d="M7.71173 4.95762C8.01596 4.95762 8.26258 4.711 8.26258 4.40677C8.26258 4.10255 8.01596 3.85593 7.71173 3.85593C7.40751 3.85593 7.16089 4.10255 7.16089 4.40677C7.16089 4.711 7.40751 4.95762 7.71173 4.95762Z" fill="#DC7000" />
    <path d="M21.483 4.95762H29.1948C29.4991 4.95762 29.7457 4.711 29.7457 4.40677C29.7457 4.10255 29.4991 3.85593 29.1948 3.85593H21.483C21.1788 3.85593 20.9321 4.10255 20.9321 4.40677C20.9321 4.711 21.1788 4.95762 21.483 4.95762Z" fill="#DC7000" />
  </g>
  <defs>
    <clipPath id="clip0_1_243">
      <rect width="33.0508" height="33.0508" fill="white" />
    </clipPath>
  </defs>
</svg>